<svg width="24" height="29" viewBox="0 0 24 29" fill="none" xmlns="http://www.w3.org/2000/svg">
<path d="M10.1988 15.8695H3.90587C3.70952 15.8695 3.52121 15.7781 3.38237 15.6153C3.24353 15.4526 3.16553 15.2319 3.16553 15.0017V8.05967C3.16553 7.82952 3.24353 7.60881 3.38237 7.44607C3.52121 7.28333 3.70952 7.19191 3.90587 7.19191H9.45842C9.65477 7.19191 9.84308 7.28333 9.98192 7.44607C10.1208 7.60881 10.1988 7.82952 10.1988 8.05967V17.605C10.1988 18.7557 9.80876 19.8593 9.11456 20.673C8.42035 21.4867 7.47881 21.9438 6.49706 21.9438" stroke="white" stroke-linecap="round" stroke-linejoin="round"/>
<path d="M20.9337 15.8695H14.6408C14.4444 15.8695 14.2561 15.7781 14.1173 15.6153C13.9785 15.4526 13.9005 15.2319 13.9005 15.0017V8.05967C13.9005 7.82952 13.9785 7.60881 14.1173 7.44607C14.2561 7.28333 14.4444 7.19191 14.6408 7.19191H20.1933C20.3897 7.19191 20.578 7.28333 20.7168 7.44607C20.8557 7.60881 20.9337 7.82952 20.9337 8.05967V17.605C20.9337 18.7557 20.5437 19.8593 19.8495 20.673C19.1553 21.4867 18.2137 21.9438 17.232 21.9438" stroke="white" stroke-linecap="round" stroke-linejoin="round"/>
</svg>
