<svg width="24" height="29" viewBox="0 0 24 29" fill="none" xmlns="http://www.w3.org/2000/svg">
<path d="M10.2049 15.8695H3.91197C3.71562 15.8695 3.52731 15.7781 3.38847 15.6153C3.24963 15.4526 3.17163 15.2319 3.17163 15.0017V8.05967C3.17163 7.82952 3.24963 7.60881 3.38847 7.44607C3.52731 7.28333 3.71562 7.19191 3.91197 7.19191H9.46452C9.66087 7.19191 9.84918 7.28333 9.98802 7.44607C10.1269 7.60881 10.2049 7.82952 10.2049 8.05967V17.605C10.2049 18.7557 9.81486 19.8593 9.12066 20.673C8.42646 21.4867 7.48491 21.9438 6.50316 21.9438" stroke="#F10677" stroke-linecap="round" stroke-linejoin="round"/>
<path d="M20.9397 15.8695H14.6468C14.4505 15.8695 14.2622 15.7781 14.1233 15.6153C13.9845 15.4526 13.9065 15.2319 13.9065 15.0017V8.05967C13.9065 7.82952 13.9845 7.60881 14.1233 7.44607C14.2622 7.28333 14.4505 7.19191 14.6468 7.19191H20.1994C20.3957 7.19191 20.584 7.28333 20.7229 7.44607C20.8617 7.60881 20.9397 7.82952 20.9397 8.05967V17.605C20.9397 18.7557 20.5497 19.8593 19.8555 20.673C19.1613 21.4867 18.2198 21.9438 17.238 21.9438" stroke="#F10677" stroke-linecap="round" stroke-linejoin="round"/>
</svg>
