<svg width="58" height="59" viewBox="0 0 58 59" fill="none" xmlns="http://www.w3.org/2000/svg">
<path d="M51.9819 28.847C51.9819 29.4471 51.7223 29.9992 51.2503 30.4555L35.5798 46.3961C35.0841 46.8524 34.5885 47.0443 34.0457 47.0443C32.8657 47.0443 31.9689 46.1802 31.9689 44.9798C31.9689 44.4277 32.1813 43.8515 32.559 43.4672L37.8218 37.9937L45.7987 30.6234L40.0638 31.0077H10.2331C9.00594 31.0077 8.15624 30.0954 8.15624 28.847C8.15624 27.5987 9.00594 26.7102 10.2331 26.7102H40.0638L45.7751 27.0704L37.8218 19.7002L32.559 14.2506C32.1576 13.8425 31.9689 13.2903 31.9689 12.7142C31.9689 11.5378 32.8657 10.6495 34.0457 10.6495C34.5885 10.6495 35.1077 10.8656 35.6269 11.3698L51.2503 27.2385C51.7223 27.7187 51.9819 28.2708 51.9819 28.847Z" fill="white"/>
</svg>
