<svg width="3" height="13" viewBox="0 0 3 13" fill="none" xmlns="http://www.w3.org/2000/svg">
<path d="M1.5 -6.55671e-08C2.32843 -2.93554e-08 3 0.671573 3 1.5C3 2.32843 2.32843 3 1.5 3C0.671573 3 -1.01779e-07 2.32843 -6.55671e-08 1.5C-2.93554e-08 0.671573 0.671573 -1.01779e-07 1.5 -6.55671e-08Z" fill="#656565"/>
<path d="M1.5 5C2.32843 5 3 5.67157 3 6.5C3 7.32843 2.32843 8 1.5 8C0.671573 8 -3.20336e-07 7.32843 -2.84124e-07 6.5C-2.47912e-07 5.67157 0.671573 5 1.5 5Z" fill="#656565"/>
<path d="M1.5 10C2.32843 10 3 10.6716 3 11.5C3 12.3284 2.32843 13 1.5 13C0.671572 13 -5.38893e-07 12.3284 -5.02681e-07 11.5C-4.66469e-07 10.6716 0.671572 10 1.5 10Z" fill="#656565"/>
</svg>
